<?xml version="1.0" encoding="utf-8"?>
<!-- Generator: Adobe Illustrator 16.0.0, SVG Export Plug-In . SVG Version: 6.00 Build 0)  -->
<!DOCTYPE svg PUBLIC "-//W3C//DTD SVG 1.1//EN" "http://www.w3.org/Graphics/SVG/1.1/DTD/svg11.dtd">
<svg version="1.1" id="Capa_1" xmlns="http://www.w3.org/2000/svg" xmlns:xlink="http://www.w3.org/1999/xlink" x="0px" y="0px"
	 width="42.5px" height="5.746px" viewBox="0 9.416 42.5 5.746" enable-background="new 0 9.416 42.5 5.746" xml:space="preserve">
<path fill="#FCFCFC" d="M21.257,9.929c6.12,0,12.239,0.004,18.358-0.004c0.805-0.001,1.515,0.199,2.056,0.814
	c0.681,0.774,0.851,1.668,0.45,2.62c-0.4,0.953-1.152,1.451-2.184,1.521c-0.117,0.007-0.235,0.005-0.353,0.005
	c-12.228,0-24.455-0.002-36.681,0.005c-0.933,0-1.715-0.273-2.26-1.05c-0.559-0.795-0.634-1.66-0.199-2.532
	c0.427-0.854,1.14-1.315,2.101-1.371C2.734,9.927,2.923,9.93,3.111,9.93C9.159,9.929,15.208,9.929,21.257,9.929z"/>
</svg>
