<?xml version="1.0" encoding="utf-8"?>
<!-- Generator: Adobe Illustrator 16.0.0, SVG Export Plug-In . SVG Version: 6.00 Build 0)  -->
<!DOCTYPE svg PUBLIC "-//W3C//DTD SVG 1.1//EN" "http://www.w3.org/Graphics/SVG/1.1/DTD/svg11.dtd">
<svg version="1.1" id="Capa_1" xmlns="http://www.w3.org/2000/svg" xmlns:xlink="http://www.w3.org/1999/xlink" x="0px" y="0px"
	 width="42.5px" height="24.397px" viewBox="0 0 42.5 24.397" enable-background="new 0 0 42.5 24.397" xml:space="preserve">
<g opacity="0.796828497">
	<path fill-rule="evenodd" clip-rule="evenodd" fill="#FFFFFF" d="M21.257,9.929c6.12,0,12.239,0.004,18.358-0.004
		c0.805-0.001,1.515,0.199,2.056,0.814c0.681,0.775,0.851,1.668,0.45,2.621c-0.4,0.953-1.152,1.451-2.184,1.521
		c-0.117,0.007-0.235,0.005-0.352,0.005c-12.228,0-24.455-0.002-36.681,0.005c-0.933,0-1.715-0.274-2.26-1.05
		c-0.559-0.795-0.634-1.66-0.199-2.532c0.427-0.855,1.14-1.316,2.101-1.371C2.734,9.927,2.923,9.93,3.111,9.93
		C9.159,9.929,15.208,9.929,21.257,9.929z"/>
	<path fill-rule="evenodd" clip-rule="evenodd" fill="#FFFFFF" d="M27.225,4.966c-4.134,0-8.268,0.002-12.402-0.001
		c-1.268,0-2.191-0.631-2.542-1.723c-0.502-1.563,0.635-3.178,2.276-3.23c0.27-0.008,0.541-0.003,0.81-0.003
		c8.116,0,16.232,0,24.347,0.001c1.354,0,2.339,0.803,2.575,2.084c0.253,1.378-0.805,2.751-2.204,2.856
		c-0.199,0.014-0.4,0.015-0.599,0.015C35.399,4.967,31.312,4.966,27.225,4.966z"/>
	<path fill-rule="evenodd" clip-rule="evenodd" fill="#FFFFFF" d="M32.012,19.438c2.572,0,5.143-0.004,7.715,0.002
		c1.32,0.003,2.295,0.775,2.542,1.988c0.304,1.494-0.813,2.919-2.337,2.96c-0.798,0.022-1.597,0.007-2.396,0.007
		c-4.438,0-8.877,0.002-13.316-0.001c-1.517-0.002-2.604-1.128-2.55-2.625c0.043-1.2,1.039-2.258,2.24-2.309
		c1.031-0.044,2.065-0.02,3.099-0.021C28.677,19.436,30.344,19.438,32.012,19.438z"/>
</g>
</svg>
